<?xml version="1.0" encoding="UTF-8" standalone="no"?>
<!-- Created with Inkscape (http://www.inkscape.org/) -->

<svg
   xmlns:dc="http://purl.org/dc/elements/1.1/"
   xmlns:cc="http://creativecommons.org/ns#"
   xmlns:rdf="http://www.w3.org/1999/02/22-rdf-syntax-ns#"
   xmlns:svg="http://www.w3.org/2000/svg"
   xmlns="http://www.w3.org/2000/svg"
   xmlns:sodipodi="http://sodipodi.sourceforge.net/DTD/sodipodi-0.dtd"
   xmlns:inkscape="http://www.inkscape.org/namespaces/inkscape"
   width="640"
   height="480"
   id="svg2"
   version="1.1"
   inkscape:version="0.48.2 r9819"
   sodipodi:docname="start.svg"
   inkscape:export-filename="C:\Users\Alexander\Documents\SpotifySource\src\com\krikelin\spotifysource\start.png"
   inkscape:export-xdpi="90"
   inkscape:export-ydpi="90">
  <defs
     id="defs4">
    <filter
       inkscape:collect="always"
       id="filter3860">
      <feGaussianBlur
         inkscape:collect="always"
         stdDeviation="0.092252868"
         id="feGaussianBlur3862" />
    </filter>
    <filter
       inkscape:collect="always"
       id="filter3880">
      <feGaussianBlur
         inkscape:collect="always"
         stdDeviation="0.21491275"
         id="feGaussianBlur3882" />
    </filter>
    <filter
       inkscape:collect="always"
       id="filter3967">
      <feGaussianBlur
         inkscape:collect="always"
         stdDeviation="0.030526998"
         id="feGaussianBlur3969" />
    </filter>
  </defs>
  <sodipodi:namedview
     id="base"
     pagecolor="#ffffff"
     bordercolor="#666666"
     borderopacity="1.0"
     inkscape:pageopacity="0.0"
     inkscape:pageshadow="2"
     inkscape:zoom="0.98994949"
     inkscape:cx="315.12518"
     inkscape:cy="264.21642"
     inkscape:document-units="px"
     inkscape:current-layer="g3817"
     showgrid="false"
     inkscape:window-width="1600"
     inkscape:window-height="838"
     inkscape:window-x="-8"
     inkscape:window-y="-8"
     inkscape:window-maximized="1" />
  <metadata
     id="metadata7">
    <rdf:RDF>
      <cc:Work
         rdf:about="">
        <dc:format>image/svg+xml</dc:format>
        <dc:type
           rdf:resource="http://purl.org/dc/dcmitype/StillImage" />
        <dc:title></dc:title>
      </cc:Work>
    </rdf:RDF>
  </metadata>
  <g
     inkscape:label="Layer 1"
     inkscape:groupmode="layer"
     id="layer1"
     transform="translate(0,-572.36218)">
    <g
       id="g3009"
       transform="matrix(7.8646383,0,0,7.8646383,42.946611,-7151.9639)"
       style="fill:#000000;fill-opacity:1">
      <g
         id="g3817"
         transform="translate(0,-2.1797388)">
        <rect
           style="fill:#2a2a2a;fill-opacity:0.99470901;stroke:#505050;stroke-opacity:0.99470902999999999"
           id="rect3838"
           width="802.0611"
           height="561.64484"
           x="-29.294424"
           y="-60.43161"
           rx="0.16168384"
           ry="0.21173389"
           transform="matrix(0.12715143,0,0,0.12715143,-5.460723,984.33884)" />
        <g
           id="g3976">
          <g
             id="g3978"
             transform="matrix(0.42345009,0,0,0.42345009,61.797879,572.77283)">
            <path
               style="font-size:medium;font-style:normal;font-variant:normal;font-weight:normal;font-stretch:normal;text-indent:0;text-align:start;text-decoration:none;line-height:normal;letter-spacing:normal;word-spacing:normal;text-transform:none;direction:ltr;block-progression:tb;writing-mode:lr-tb;text-anchor:start;baseline-shift:baseline;color:#000000;fill:#070707;fill-opacity:0.99470903;stroke:none;stroke-width:3.9000001;marker:none;visibility:visible;display:inline;overflow:visible;enable-background:accumulate;font-family:Sans;-inkscape-font-specification:Sans"
               d="m 21.82398,993.55361 c -0.08141,0 -0.148034,0.0848 -0.148034,0.19146 l 0,6.00437 c -10.162232,1.00006 -18.2336778,9.49506 -18.4538276,19.95206 -0.2375686,11.2842 8.7656336,20.6641 20.0497186,20.9019 l 0.08304,-3.5491 c -9.369276,-0.1963 -16.780782,-7.9256 -16.5835328,-17.295 l 0,-0.03 c 0.2124509,-9.3557 7.9351578,-16.7228 17.2948228,-16.5256 l 0.02891,0 c 9.355593,0.2127 16.722809,7.9062 16.525762,17.2658 -0.04495,2.1343 -0.479261,4.2496 -1.307042,6.2176 l 3.267603,1.3647 c 1.001033,-2.3795 1.534331,-4.9183 1.588669,-7.4991 0.231923,-11.0166 -8.341068,-20.2148 -19.248163,-20.86576 l 0,-5.94302 c 0,-0.10663 -0.06663,-0.19145 -0.148034,-0.19145 l -2.94987,0 z m 2.668241,12.20739 -0.07582,3.5531 c 5.631412,0.1172 10.06579,4.7309 9.947232,10.3621 -0.118553,5.6314 -4.749095,10.0659 -10.380506,9.9475 l -0.03611,0 c -5.613911,-0.139 -10.029425,-4.7615 -9.911126,-10.3806 0.027,-1.281 0.301146,-2.5344 0.797943,-3.7153 l -3.260379,-1.3756 c -0.670054,1.5927 -1.032369,3.2909 -1.068739,5.0186 -0.158861,7.5463 5.859969,13.8432 13.406195,14.0022 7.546224,0.1581 13.828635,-5.8783 13.987502,-13.4243 0.158861,-7.5462 -5.859967,-13.8287 -13.406196,-13.9877 z"
               id="path3980"
               inkscape:connector-curvature="0" />
            <path
               transform="matrix(0.9965758,0,0,0.9965758,8.4987055,2.3968523)"
               inkscape:connector-curvature="0"
               id="path3982"
               d="m 13.420965,995.2806 c -0.07951,0 -0.144594,0.0828 -0.144594,0.18703 l 0,5.86497 c -9.9262579,0.977 -17.8102797,9.2746 -18.025316,19.4888 -0.2320522,11.0221 8.5620894,20.1843 19.58415,20.4165 l 0.0811,-3.4666 c -9.1517154,-0.1919 -16.3911177,-7.7416 -16.1984515,-16.8934 l 0,-0.03 c 0.2075119,-9.1383 7.7508957,-16.3343 16.8932245,-16.1418 l 0.02821,0 c 9.138348,0.2081 16.334491,7.7223 16.14202,16.8647 -0.04389,2.0849 -0.468132,4.1511 -1.276689,6.0733 l 3.191725,1.333 c 0.977787,-2.3244 1.498705,-4.8038 1.551781,-7.3249 0.226539,-10.761 -8.147386,-19.7453 -18.801211,-20.3812 l 0,-5.80519 c 0,-0.10405 -0.06511,-0.18702 -0.144593,-0.18702 l -2.88137,0 z m 2.60628,11.9239 -0.07406,3.4705 c 5.500647,0.1162 9.832052,4.6213 9.716248,10.1218 -0.11581,5.5005 -4.638814,9.8322 -10.139461,9.7162 l -0.03527,0 c -5.483553,-0.1352 -9.7965343,-4.6506 -9.6809836,-10.1394 0.026212,-1.2513 0.2941539,-2.4757 0.7794153,-3.629 l -3.1846705,-1.3437 c -0.6544946,1.5556 -1.0083978,3.2146 -1.0439242,4.9021 -0.1551878,7.3711 5.723897,13.5218 13.094893,13.677 7.370999,0.154 13.507526,-5.7416 13.662706,-13.1127 0.155188,-7.371 -5.723898,-13.5074 -13.094894,-13.6628 z"
               style="font-size:medium;font-style:normal;font-variant:normal;font-weight:normal;font-stretch:normal;text-indent:0;text-align:start;text-decoration:none;line-height:normal;letter-spacing:normal;word-spacing:normal;text-transform:none;direction:ltr;block-progression:tb;writing-mode:lr-tb;text-anchor:start;baseline-shift:baseline;color:#000000;fill:#0b0b0b;fill-opacity:0.99470903;stroke:none;stroke-width:3.9000001;marker:none;visibility:visible;display:inline;overflow:visible;filter:url(#filter3880);enable-background:accumulate;font-family:Sans;-inkscape-font-specification:Sans" />
          </g>
        </g>
        <g
           id="g3971"
           transform="matrix(3.8107632,0,0,3.8107632,-250.71081,-2800.8214)">
          <g
             transform="matrix(0.42345009,0,0,0.42345009,61.797879,572.77283)"
             id="g3884">
            <path
               inkscape:connector-curvature="0"
               id="path3832"
               d="m 18.719716,993.55361 c -0.08141,0 -0.148034,0.0848 -0.148034,0.19146 l 0,6.00437 c -10.1622318,1.00006 -18.23367762,9.49506 -18.45382742,19.95206 -0.2375686,11.2842 8.76563362,20.6641 20.04971842,20.9019 l 0.08304,-3.5491 c -9.369276,-0.1963 -16.7807818,-7.9256 -16.5835326,-17.295 l 0,-0.03 c 0.2124509,-9.3557 7.9351576,-16.7228 17.2948226,-16.5256 l 0.02891,0 c 9.355593,0.2127 16.722809,7.9062 16.525762,17.2658 -0.04495,2.1343 -0.479261,4.2496 -1.307042,6.2176 l 3.267603,1.3647 c 1.001033,-2.3795 1.534331,-4.9183 1.588669,-7.4991 0.231923,-11.0166 -8.341068,-20.2148 -19.248163,-20.86576 l 0,-5.94302 c 0,-0.10663 -0.06663,-0.19145 -0.148034,-0.19145 l -2.94987,0 z m 2.668241,12.20739 -0.07582,3.5531 c 5.631412,0.1172 10.06579,4.7309 9.947232,10.3621 -0.118553,5.6314 -4.749095,10.0659 -10.380506,9.9475 l -0.03611,0 c -5.613911,-0.139 -10.029425,-4.7615 -9.911126,-10.3806 0.027,-1.281 0.301146,-2.5344 0.797943,-3.7153 l -3.2603788,-1.3756 c -0.670054,1.5927 -1.032369,3.2909 -1.068739,5.0186 -0.158861,7.5463 5.8599688,13.8432 13.4061948,14.0022 7.546224,0.1581 13.828635,-5.8783 13.987502,-13.4243 0.158861,-7.5462 -5.859967,-13.8287 -13.406196,-13.9877 z"
               style="font-size:medium;font-style:normal;font-variant:normal;font-weight:normal;font-stretch:normal;text-indent:0;text-align:start;text-decoration:none;line-height:normal;letter-spacing:normal;word-spacing:normal;text-transform:none;direction:ltr;block-progression:tb;writing-mode:lr-tb;text-anchor:start;baseline-shift:baseline;opacity:0.11504427;color:#000000;fill:#070707;fill-opacity:0.99470903;stroke:none;stroke-width:3.9000001;marker:none;visibility:visible;display:inline;overflow:visible;enable-background:accumulate;font-family:Sans;-inkscape-font-specification:Sans" />
          </g>
        </g>
        <g
           id="g3894"
           transform="matrix(0.27544377,0,0,0.27544377,56.071854,738.39085)">
          <g
             transform="matrix(1.8474157,0,0,1.8474157,-37.208352,-813.5309)"
             id="g3888">
            <text
               xml:space="preserve"
               style="font-size:13.90017509px;font-style:normal;font-weight:normal;line-height:125%;letter-spacing:0px;word-spacing:0px;fill:#000000;fill-opacity:1;stroke:none;font-family:Sans"
               x="35.139973"
               y="995.11743"
               id="text3840"
               sodipodi:linespacing="125%"><tspan
                 sodipodi:role="line"
                 id="tspan3842"
                 x="35.139973"
                 y="995.11743">Apps</tspan></text>
            <text
               sodipodi:linespacing="125%"
               id="text3844"
               y="1010.9133"
               x="34.715542"
               style="font-size:13.34444046px;font-style:normal;font-weight:normal;line-height:125%;letter-spacing:0px;word-spacing:0px;fill:#0f0f0f;fill-opacity:1;stroke:none;filter:url(#filter3860);font-family:Sans"
               xml:space="preserve"
               transform="matrix(1.0278566,0,0,0.94879201,-0.256157,35.779061)"><tspan
                 y="1010.9133"
                 x="34.715542"
                 id="tspan3846"
                 sodipodi:role="line">Apps</tspan></text>
          </g>
        </g>
        <g
           id="g3917"
           transform="matrix(1.2390568,0,0,1.2390568,-5.3020801,-248.96688)">
          <g
             id="g3933"
             style="fill:#000000;fill-opacity:1">
            <text
               xml:space="preserve"
               style="font-size:12.20357132px;font-style:normal;font-weight:normal;line-height:125%;letter-spacing:0px;word-spacing:0px;fill:#000000;fill-opacity:1;stroke:none;font-family:Sans"
               x="4.4969473"
               y="1013.8717"
               id="text3935"
               sodipodi:linespacing="125%"><tspan
                 style="font-weight:bold;fill:#000000;fill-opacity:1;font-family:Times New Roman;-inkscape-font-specification:Times New Roman"
                 sodipodi:role="line"
                 id="tspan3937"
                 x="4.4969473"
                 y="1013.8717">Discover</tspan></text>
            <text
               sodipodi:linespacing="125%"
               id="text3939"
               y="1020.4092"
               x="11.230563"
               style="font-size:5.62667227px;font-style:normal;font-weight:normal;line-height:125%;letter-spacing:0px;word-spacing:0px;fill:#000000;fill-opacity:1;stroke:none;font-family:Sans"
               xml:space="preserve"><tspan
                 y="1020.4092"
                 x="11.230563"
                 id="tspan3941"
                 sodipodi:role="line"
                 style="font-weight:bold;fill:#000000;fill-opacity:1;font-family:Times New Roman;-inkscape-font-specification:Times New Roman">the possibilities</tspan></text>
          </g>
          <g
             id="g3927"
             transform="translate(0.05183066,0.13770651)"
             style="fill:#080808;fill-opacity:1;filter:url(#filter3967)">
            <text
               sodipodi:linespacing="125%"
               id="text3923"
               y="1013.8717"
               x="4.4969473"
               style="font-size:12.20357132px;font-style:normal;font-weight:normal;line-height:125%;letter-spacing:0px;word-spacing:0px;fill:#080808;fill-opacity:1;stroke:none;font-family:Sans"
               xml:space="preserve"><tspan
                 y="1013.8717"
                 x="4.4969473"
                 id="tspan3925"
                 sodipodi:role="line"
                 style="font-weight:bold;fill:#121212;fill-opacity:1;font-family:Times New Roman;-inkscape-font-specification:Times New Roman">Discover</tspan></text>
            <text
               xml:space="preserve"
               style="font-size:5.62667227px;font-style:normal;font-weight:normal;line-height:125%;letter-spacing:0px;word-spacing:0px;fill:#080808;fill-opacity:1;stroke:none;font-family:Sans"
               x="11.230563"
               y="1020.4092"
               id="text3909"
               sodipodi:linespacing="125%"><tspan
                 style="font-weight:bold;fill:#080808;fill-opacity:1;font-family:Times New Roman;-inkscape-font-specification:Times New Roman"
                 sodipodi:role="line"
                 id="tspan3911"
                 x="11.230563"
                 y="1020.4092">the possibilities</tspan></text>
          </g>
        </g>
      </g>
    </g>
  </g>
</svg>
